<svg width="197" height="179" viewBox="0 0 197 179" fill="none" xmlns="http://www.w3.org/2000/svg">
<path d="M82.9399 94.4037C92.5679 99.9606 97.3817 102.739 102.669 102.744C107.956 102.748 112.774 99.9784 122.412 94.4381L183.848 59.1234C186.621 57.5292 188.331 54.5741 188.331 51.375C188.331 48.176 186.621 45.2209 183.848 43.6267L122.39 8.29908C112.763 2.76499 107.949 -0.00206039 102.667 1.15108e-06C97.3854 0.00206269 92.574 2.77286 82.951 8.31446L30.118 38.7394C29.7263 38.9649 29.5306 39.0775 29.3481 39.1843C11.3008 49.7492 0.150597 69.0372 0.00150763 89.9489C-6.16106e-08 90.1603 0 90.3861 0 90.8381C0 91.2895 -1.0746e-08 91.515 0.0015046 91.7261C0.150265 112.614 11.2756 131.884 29.2907 142.458C29.4728 142.565 29.6682 142.677 30.0593 142.903L63.1537 162.011C82.4377 173.145 92.0796 178.712 102.668 178.715C113.256 178.719 122.902 173.158 142.194 162.038L177.129 141.898C186.789 136.329 191.619 133.545 194.271 128.955C196.923 124.365 196.923 118.79 196.923 107.64V86.1012C196.923 83.008 195.248 80.1575 192.545 78.6523C189.93 77.196 186.743 77.2175 184.148 78.7092L112.512 119.888C107.706 122.651 105.303 124.032 102.665 124.033C100.028 124.034 97.6245 122.654 92.8165 119.894L44.3316 92.0624C41.903 90.6683 40.6885 89.971 39.7131 89.8452C37.4894 89.5584 35.3513 90.804 34.5042 92.88C34.1328 93.7907 34.1402 95.1907 34.1553 97.9911C34.1663 100.053 34.1719 101.084 34.3645 102.032C34.7962 104.155 35.9131 106.078 37.5442 107.504C38.2725 108.141 39.1651 108.656 40.9506 109.687L92.7891 139.606C97.6097 142.388 100.02 143.779 102.666 143.78C105.313 143.781 107.724 142.391 112.546 139.611L176.084 102.985C177.732 102.036 178.555 101.561 179.173 101.918C179.79 102.275 179.79 103.225 179.79 105.126V114.896C179.79 117.684 179.79 119.077 179.127 120.225C178.464 121.372 177.256 122.069 174.841 123.461L122.435 153.67C112.787 159.231 107.963 162.012 102.668 162.01C97.3722 162.007 92.5506 159.222 82.9079 153.652L33.8768 125.329C33.7211 125.238 33.6433 125.194 33.5706 125.151C23.2901 119.144 16.9466 108.154 16.8871 96.2464C16.8867 96.1624 16.8867 96.0726 16.8867 95.8926V86.9246C16.8867 80.3514 20.3875 74.276 26.0744 70.9797C31.0996 68.0667 37.298 68.0609 42.3285 70.9646L82.9399 94.4037Z" fill="white"/>
</svg>
